<svg width="81" height="90" viewBox="0 0 81 90" fill="none" xmlns="http://www.w3.org/2000/svg">
<path fill-rule="evenodd" clip-rule="evenodd" d="M0 5C0 2.23859 2.23828 0 5 0C7.76172 0 10 2.23859 10 5V10H20V7C20 3.134 23.1338 0 27 0H55C58.8662 0 62 3.134 62 7V10H71V5C71 2.23859 73.2383 0 76 0C78.7617 0 81 2.23859 81 5V85C81 87.7614 78.7617 90 76 90C73.2383 90 71 87.7614 71 85V80H62V83C62 86.866 58.8662 90 55 90H27C23.1338 90 20 86.866 20 83V80H10V85C10 87.7614 7.76172 90 5 90C2.23828 90 0 87.7614 0 85V5ZM71 70V60H62V70H71ZM71 50V40H62V50H71ZM71 30V20H62V30H71ZM10 20H20V30H10V20ZM10 40H20V50H10V40ZM10 60H20V70H10V60Z" fill="#CECECF"/>
</svg>
